<?xml version="1.0" encoding="utf-8"?>
<svg viewBox="0 0 64 64" xmlns="http://www.w3.org/2000/svg" xmlns:bx="https://boxy-svg.com">
  <path d="M 28.202 4.272 L 43.152 22.551 L 13.252 22.551 L 28.202 4.272 Z" style="fill: rgb(255, 255, 255);" bx:shape="triangle 13.252 4.272 29.9 18.279 0.5 0 1@d76c02c0"/>
  <path d="M 28.118 59.023 C 33.432 59.023 37.602 57.668 40.904 55.361 C 44.197 53.059 46.43 49.939 47.729 46.291 C 50.333 38.964 48.938 30.107 43.278 23.39 C 41.775 21.428 33.672 24.67 28.303 20.35 C 22.314 15.532 14.705 21.195 12.951 23.399 C 7.157 30.072 5.815 38.923 8.48 46.259 C 9.807 49.914 12.072 53.042 15.379 55.349 C 18.693 57.662 22.856 59.023 28.118 59.023 Z" style="fill: rgb(115, 255, 255);"/>
  <path style="fill: none; stroke: black;" d="M 12.829 22.38 C 28.827 12.338 26.247 26.07 42.296 22.266"/>
  <circle cx="44.923" cy="48.077" r="11.692" style="fill: rgb(255, 255, 255);"/>
  <path d="M49.7 35.9C47.3 21.2 29.5 4 28.7 3.3c-.4-.4-1-.4-1.4 0C26.4 4.1 6 23.7 6 39c0 12.1 9.9 22 22 22 3.4 0 6.7-.8 9.7-2.3 2.1 1.4 4.6 2.3 7.3 2.3 7.2 0 13-5.8 13-13 0-5.5-3.4-10.2-8.3-12.1zM28 59C17 59 8 50 8 39 8 26.1 24.4 9 28 5.4 31.3 8.7 45 23 47.6 35.3c-.9-.2-1.7-.3-2.6-.3-7.2 0-13 5.8-13 13 0 3.7 1.5 7 4 9.3a19.8 19.8 0 0 1-8 1.7zm17 0c-6.1 0-11-4.9-11-11s4.9-11 11-11 11 4.9 11 11-4.9 11-11 11z" style="paint-order: stroke markers; fill-rule: nonzero;"/>
  <path d="M28 54c-8.3 0-15-6.7-15-15 0-.6-.4-1-1-1s-1 .4-1 1c0 9.4 7.6 17 17 17 .6 0 1-.4 1-1s-.4-1-1-1zm20.4-13.9c-.5-.2-1.1 0-1.3.5l-6 14c-.2.5 0 1.1.5 1.3.1.1.3.1.4.1.4 0 .8-.2.9-.6l6-14c.2-.5 0-1.1-.5-1.3zM44 44c0-1.7-1.3-3-3-3s-3 1.3-3 3 1.3 3 3 3 3-1.3 3-3zm-4 0c0-.6.4-1 1-1s1 .4 1 1-.4 1-1 1-1-.4-1-1zm9 5c-1.7 0-3 1.3-3 3s1.3 3 3 3 3-1.3 3-3-1.3-3-3-3zm0 4c-.6 0-1-.4-1-1s.4-1 1-1 1 .4 1 1-.4 1-1 1z" style=""/>
</svg>
