<svg width="24" height="24" viewBox="0 0 24 24" xmlns="http://www.w3.org/2000/svg"><ellipse style="stroke:none;stroke-width:1;stroke-dasharray:none;stroke-linecap:butt;stroke-dashoffset:0;stroke-linejoin:miter;stroke-miterlimit:4;fill:#000;fill-rule:nonzero;opacity:.3" rx="22" ry="3" transform="matrix(.31 0 0 .31 12 20.99)"/><path style="stroke:none;stroke-width:1;stroke-dasharray:none;stroke-linecap:butt;stroke-dashoffset:0;stroke-linejoin:miter;stroke-miterlimit:4;fill:#37d0ee;fill-rule:nonzero;opacity:1" transform="matrix(.31 0 0 .31 2.08 2.08)" d="M53 53h-7a2 2 0 0 1 0-4h5V11h-5a2 2 0 0 1 0-4h7a2 2 0 0 1 2 2v42a2 2 0 0 1-2 2z"/><path style="stroke:none;stroke-width:1;stroke-dasharray:none;stroke-linecap:butt;stroke-dashoffset:0;stroke-linejoin:miter;stroke-miterlimit:4;fill:#37d0ee;fill-rule:nonzero;opacity:1" transform="matrix(.31 0 0 .31 2.08 2.08)" d="M53 32h-7a2 2 0 0 1 0-4h7a2 2 0 0 1 0 4zm0-10h-5a2 2 0 0 1 0-4h5a2 2 0 0 1 0 4zm0 21h-5a2 2 0 0 1 0-4h5a2 2 0 0 1 0 4z"/><path style="stroke:none;stroke-width:1;stroke-dasharray:none;stroke-linecap:butt;stroke-dashoffset:0;stroke-linejoin:miter;stroke-miterlimit:4;fill:#fd3c4f;fill-rule:nonzero;opacity:1" transform="matrix(.31 0 0 .31 2.08 2.08)" d="M46 11h5v7h-3a2 2 0 0 0 0 4h7V9a2 2 0 0 0-2-2h-7a2 2 0 0 0 0 4z"/><path style="stroke:none;stroke-width:1;stroke-dasharray:none;stroke-linecap:butt;stroke-dashoffset:0;stroke-linejoin:miter;stroke-miterlimit:4;fill:#008aa9;fill-rule:nonzero;opacity:1" transform="matrix(.31 0 0 .31 2.08 2.08)" d="M19.977 7a2.002 2.002 0 0 0-1.997 1.96C17.633 25.314 13 29.56 13 44c0 1.5 6 1.5 6 0 0-14.412 4.615-18.67 4.977-34.946A2.008 2.008 0 0 0 21.976 7h-1.999zm17.022 0a2.002 2.002 0 0 0-1.997 1.96c-.347 16.354-4.98 20.6-4.98 35.04 0 1.5 6 1.5 6 0 0-14.412 4.615-18.67 4.977-34.946A2.009 2.009 0 0 0 38.997 7h-1.998z"/><path style="stroke:none;stroke-width:1;stroke-dasharray:none;stroke-linecap:butt;stroke-dashoffset:0;stroke-linejoin:miter;stroke-miterlimit:4;fill:#008aa9;fill-rule:nonzero;opacity:1" transform="matrix(.31 0 0 .31 2.08 2.08)" d="M21.149 43.005 10.853 43c-1.538-.001-2.404 1.713-1.461 2.89l5.145 6.418c.739.922 2.178.923 2.918.002l5.151-6.412c.946-1.178.081-2.892-1.457-2.893zm17 0L27.853 43c-1.538-.001-2.404 1.713-1.461 2.89l5.145 6.418c.739.922 2.178.923 2.918.002l5.151-6.412c.946-1.178.081-2.892-1.457-2.893z"/><path style="stroke:none;stroke-width:1;stroke-dasharray:none;stroke-linecap:butt;stroke-dashoffset:0;stroke-linejoin:miter;stroke-miterlimit:4;fill:#fff;fill-rule:nonzero;opacity:.3" transform="matrix(.31 0 0 .31 2.08 2.08)" d="M21.98 7h-2c-1.09 0-1.98.87-2 1.96-.21 9.66-1.91 15.09-3.26 20.9.01.01.01.01.02.01a5.013 5.013 0 0 0 6.02-3.72c.96-4.09 1.88-8.74 2.16-15.1.39-.29.74-.63 1.03-1.02l.03-.98a2.01 2.01 0 0 0-2-2.05z"/><path style="stroke:none;stroke-width:1;stroke-dasharray:none;stroke-linecap:butt;stroke-dashoffset:0;stroke-linejoin:miter;stroke-miterlimit:4;fill:#000;fill-rule:nonzero;opacity:.15" transform="matrix(.31 0 0 .31 2.08 2.08)" d="m39.61 45.9-4.82 6a4.982 4.982 0 0 1-1.77-4.91c-.19-.14-.38-.3-.55-.48a4.984 4.984 0 0 1-1.44-3.58c.11-7.16 1.31-12.06 2.47-16.79.18-.75.36-1.51.55-2.29.62-2.64 3.25-4.3 5.89-3.74-1.42 8.03-3.76 13.07-3.91 22.89l2.12.01c1.54 0 2.4 1.71 1.46 2.89z"/><path style="stroke:none;stroke-width:1;stroke-dasharray:none;stroke-linecap:butt;stroke-dashoffset:0;stroke-linejoin:miter;stroke-miterlimit:4;fill:#fff;fill-rule:nonzero;opacity:1" transform="matrix(.31 0 0 .31 2.08 2.08)" d="M20.502 22a1.5 1.5 0 0 1-1.473-1.795c.654-3.266.971-5.786.971-7.705a1.5 1.5 0 1 1 3 0c0 2.148-.327 4.784-1.029 8.294A1.5 1.5 0 0 1 20.502 22z"/></svg>
